<svg xmlns="http://www.w3.org/2000/svg" viewBox="0 0 1600 900" role="img" aria-label="Placeholder photo of Grand Lake water and marina docks">
  <defs>
    <linearGradient id="sky" x1="0" y1="0" x2="0" y2="1">
      <stop offset="0" stop-color="#cfe8ff"/>
      <stop offset=".55" stop-color="#f5fbff"/>
      <stop offset="1" stop-color="#ffffff"/>
    </linearGradient>
    <linearGradient id="water" x1="0" y1="0" x2="0" y2="1">
      <stop offset="0" stop-color="#1565c0"/>
      <stop offset="1" stop-color="#083e7e"/>
    </linearGradient>
    <radialGradient id="sun" cx="70%" cy="22%" r="18%">
      <stop offset="0" stop-color="#fff7ca"/>
      <stop offset="1" stop-color="#fff7ca" stop-opacity="0"/>
    </radialGradient>
  </defs>
  <rect width="1600" height="900" fill="url(#sky)"/>
  <rect width="1600" height="900" fill="url(#sun)"/>
  <path d="M0 410 C220 330 390 365 580 330 C765 295 900 370 1080 335 C1260 300 1420 335 1600 290 L1600 900 L0 900 Z" fill="#0d1b2a" opacity=".12"/>
  <path d="M0 465 C190 420 360 440 540 400 C755 352 925 440 1115 400 C1300 360 1450 390 1600 350 L1600 900 L0 900 Z" fill="#0d1b2a" opacity=".17"/>
  <rect y="500" width="1600" height="400" fill="url(#water)"/>
  <g opacity=".24" fill="none" stroke="#ffffff" stroke-width="4">
    <path d="M-40 555 C150 530 250 580 440 555 S780 530 980 560 S1320 590 1660 555"/>
    <path d="M-30 630 C170 600 330 650 500 625 S820 595 1040 640 S1360 660 1630 625"/>
    <path d="M-70 730 C140 705 280 750 500 725 S820 700 1050 735 S1380 770 1660 725"/>
  </g>
  <g transform="translate(155 574)">
    <polygon points="0,130 440,30 870,100 470,210" fill="#0b0f14" opacity=".72"/>
    <polygon points="35,128 443,47 818,101 472,190" fill="#f4f7fb" opacity=".92"/>
    <g fill="#0b0f14" opacity=".92">
      <rect x="115" y="96" width="18" height="150" rx="4"/>
      <rect x="315" y="55" width="18" height="150" rx="4"/>
      <rect x="520" y="75" width="18" height="150" rx="4"/>
      <rect x="710" y="100" width="18" height="150" rx="4"/>
    </g>
  </g>
  <g transform="translate(980 575)">
    <path d="M0 118 L220 70 L390 110 L170 165 Z" fill="#ffffff" opacity=".9"/>
    <path d="M75 75 C105 25 200 20 248 78 L204 78 L185 118 L118 118 L102 76 Z" fill="#0b0f14" opacity=".75"/>
    <path d="M83 82 L247 82" stroke="#1565c0" stroke-width="9"/>
  </g>
  <text x="64" y="830" fill="#ffffff" font-family="Arial, Helvetica, sans-serif" font-size="34" font-weight="700" opacity=".82">Placeholder lake / marina image</text>
</svg>
